<?xml version="1.0" standalone="no"?>
<!DOCTYPE svg PUBLIC "-//W3C//DTD SVG 20010904//EN"
 "http://www.w3.org/TR/2001/REC-SVG-20010904/DTD/svg10.dtd">
<svg version="1.0" xmlns="http://www.w3.org/2000/svg"
 width="2000.000000pt" height="2000.000000pt" viewBox="0 0 2000.000000 2000.000000"
 preserveAspectRatio="xMidYMid meet">
<metadata>
Created by potrace 1.11, written by Peter Selinger 2001-2013
</metadata>
<g transform="translate(0.000000,2000.000000) scale(0.100000,-0.100000)"
fill="#000000" stroke="none">
<path d="M9249 19146 c-2 -2 -69 -7 -149 -11 -80 -4 -158 -9 -175 -10 -16 -2
-57 -6 -90 -9 -33 -3 -78 -8 -100 -11 -22 -2 -62 -7 -90 -10 -27 -3 -61 -8
-75 -10 -14 -2 -45 -6 -70 -9 -38 -5 -128 -19 -310 -51 -29 -5 -104 -21 -322
-70 -93 -21 -376 -103 -450 -131 -20 -7 -47 -15 -60 -18 -13 -2 -81 -25 -152
-51 -458 -163 -766 -323 -933 -484 -37 -35 -38 -39 -19 -63 17 -23 28 -23 100
6 101 40 356 103 701 172 127 25 477 85 585 99 25 3 56 8 70 10 29 4 84 11
155 20 28 3 68 7 90 10 22 3 69 8 105 11 36 3 79 8 95 9 17 2 68 7 115 10 47
4 99 8 115 10 17 1 72 6 124 9 51 4 101 9 111 11 43 8 370 18 610 19 320 0
618 -14 820 -39 19 -3 60 -7 90 -10 30 -3 87 -10 125 -15 39 -5 90 -12 115
-15 362 -48 825 -150 1220 -271 211 -64 552 -184 655 -229 17 -8 73 -31 125
-53 304 -125 627 -292 900 -464 52 -33 104 -65 115 -72 11 -6 22 -13 25 -16 3
-3 48 -34 100 -70 140 -95 389 -281 436 -325 6 -5 28 -23 49 -40 21 -16 43
-34 49 -40 6 -5 38 -32 71 -60 103 -85 357 -345 453 -463 204 -252 369 -522
504 -827 15 -33 38 -85 52 -115 95 -211 211 -576 262 -820 15 -73 43 -234 50
-290 3 -25 7 -56 10 -70 2 -14 6 -56 9 -95 4 -38 8 -83 10 -100 25 -191 25
-799 0 -946 -2 -13 -6 -44 -9 -69 -14 -123 -48 -322 -76 -445 -11 -45 -21 -92
-23 -105 -9 -45 -58 -212 -100 -340 -22 -69 -42 -129 -43 -135 -16 -71 -225
-538 -284 -635 -5 -8 -42 -69 -81 -135 -39 -66 -96 -156 -127 -200 -57 -82
-251 -346 -262 -355 -3 -3 -39 -48 -80 -100 -41 -52 -82 -102 -90 -111 -8 -8
-26 -29 -39 -45 -212 -255 -445 -496 -757 -785 -110 -101 -369 -313 -544 -444
-268 -201 -768 -511 -1225 -759 -167 -91 -556 -287 -685 -346 -41 -18 -122
-56 -180 -83 -58 -27 -109 -50 -115 -52 -5 -1 -32 -12 -60 -24 -53 -24 -356
-148 -440 -181 -27 -10 -113 -44 -191 -74 -78 -30 -197 -73 -264 -95 -115 -38
-176 -72 -164 -92 3 -5 7 -19 9 -31 13 -65 177 -79 394 -33 71 15 100 20 156
29 136 21 130 20 210 36 28 5 62 12 78 15 47 9 80 16 167 35 47 10 96 21 110
24 20 3 349 88 432 110 83 22 179 49 208 58 36 11 55 16 68 19 4 1 18 6 32 11
14 5 32 11 40 13 9 2 74 22 145 45 442 145 973 387 1425 650 63 37 126 73 140
81 14 8 27 16 30 19 3 3 28 19 55 35 131 76 540 356 640 439 17 14 68 55 115
93 47 37 90 72 96 78 6 5 35 30 64 55 210 177 545 507 707 696 10 12 41 48 69
80 126 145 154 180 267 329 291 388 552 862 733 1335 25 63 49 124 54 135 10
23 110 322 115 346 2 9 13 48 24 86 19 63 57 226 65 278 5 30 18 107 22 130
11 57 41 323 51 460 10 133 10 910 0 1005 -4 41 -10 95 -13 120 -4 42 -20 151
-30 210 -2 14 -7 41 -10 60 -3 19 -7 42 -9 50 -2 8 -7 29 -9 45 -14 80 -72
296 -117 440 -134 420 -349 871 -586 1230 -21 32 -46 72 -57 89 -10 17 -28 43
-40 58 -11 15 -39 52 -61 83 -210 293 -508 618 -780 850 -38 33 -72 62 -75 65
-14 15 -258 206 -345 271 -442 330 -940 607 -1430 796 -142 54 -558 197 -690
236 -183 55 -447 124 -560 147 -33 7 -64 13 -70 15 -5 1 -28 5 -50 10 -22 4
-49 9 -60 12 -17 3 -99 18 -214 38 -13 2 -45 7 -70 11 -25 3 -57 8 -71 10 -14
2 -50 6 -80 9 -30 4 -65 8 -78 10 -12 2 -57 7 -100 10 -42 3 -93 8 -112 10
-19 2 -71 7 -115 10 -44 4 -91 8 -105 11 -14 2 -70 7 -125 10 -55 3 -122 8
-150 10 -60 6 -890 15 -896 10z"/>
<path d="M8509 18256 c-2 -2 -71 -7 -154 -10 -82 -4 -168 -8 -190 -10 -22 -2
-77 -7 -122 -10 -46 -4 -91 -9 -100 -10 -10 -2 -52 -7 -93 -11 -41 -3 -82 -8
-90 -10 -8 -2 -40 -7 -70 -10 -30 -3 -68 -9 -85 -11 -613 -103 -1038 -215
-1504 -399 -194 -76 -260 -106 -483 -216 -145 -72 -187 -94 -403 -217 -79 -44
-305 -190 -315 -202 -3 -3 -21 -17 -40 -30 -98 -67 -284 -225 -398 -338 -170
-170 -260 -274 -387 -447 -32 -44 -67 -89 -78 -100 -45 -47 -107 -139 -107
-160 0 -27 27 -53 61 -58 49 -8 102 22 282 158 65 49 329 217 404 257 21 11
73 40 115 64 260 148 662 323 1043 457 136 48 582 188 645 202 8 2 65 17 125
33 113 31 387 97 440 106 17 3 39 7 50 10 21 6 270 52 320 60 17 3 48 7 70 11
23 3 52 8 65 10 14 3 49 8 79 11 30 3 57 7 60 9 4 2 42 6 86 10 44 4 82 9 85
10 3 2 39 6 80 10 41 3 91 8 110 10 19 2 76 7 125 10 50 4 110 8 135 10 235
19 935 27 1150 12 58 -4 139 -9 180 -12 72 -5 150 -12 215 -20 17 -2 57 -7 90
-10 33 -3 105 -12 160 -20 55 -8 118 -16 140 -19 74 -10 319 -55 440 -81 265
-56 306 -65 406 -90 300 -76 700 -208 904 -299 17 -8 64 -28 105 -46 161 -70
427 -208 632 -329 136 -80 321 -213 428 -308 77 -68 255 -246 321 -323 71 -82
244 -301 284 -360 16 -25 33 -47 36 -50 26 -23 203 -343 246 -445 14 -33 34
-78 44 -100 20 -44 60 -144 63 -160 2 -5 8 -21 14 -35 42 -97 90 -251 130
-420 35 -146 52 -237 66 -365 4 -33 9 -73 11 -90 4 -32 14 -163 21 -280 4 -83
4 -332 -1 -393 -6 -87 -17 -195 -20 -211 -1 -9 -6 -36 -9 -61 -9 -67 -23 -143
-42 -230 -3 -14 -7 -34 -9 -45 -14 -63 -69 -245 -89 -293 -13 -32 -63 -137
-110 -235 -105 -216 -132 -291 -117 -324 6 -13 19 -23 29 -23 65 0 248 191
402 419 129 191 316 630 384 901 4 14 24 93 45 175 37 142 53 214 65 295 3 19
8 46 10 60 25 136 31 243 31 520 0 355 -9 458 -61 694 -66 300 -241 733 -408
1009 -179 296 -391 551 -645 777 -41 36 -79 70 -85 76 -6 5 -51 43 -101 82
-49 40 -97 78 -105 85 -8 7 -58 43 -110 80 -52 36 -100 71 -106 75 -5 5 -21
15 -34 22 -13 7 -29 17 -34 22 -15 12 -178 113 -232 143 -24 13 -79 44 -121
68 -43 25 -159 85 -258 135 -168 84 -227 111 -460 213 -242 105 -679 247
-1020 332 -280 70 -757 163 -935 182 -19 2 -48 6 -65 9 -16 2 -54 8 -84 11
-30 4 -61 8 -70 10 -9 1 -52 6 -96 10 -44 4 -82 8 -85 10 -3 1 -50 6 -105 10
-55 3 -111 8 -125 10 -14 2 -72 7 -130 10 -58 4 -139 8 -180 11 -90 6 -756 14
-761 10z"/>
<path d="M8807 16974 c-1 -1 -92 -5 -202 -8 -110 -4 -222 -9 -250 -11 -27 -2
-90 -7 -140 -10 -177 -13 -199 -15 -430 -41 -122 -13 -287 -36 -490 -70 -244
-40 -309 -52 -545 -105 -124 -28 -232 -52 -241 -54 -82 -17 -369 -99 -534
-152 -60 -19 -114 -36 -120 -38 -10 -2 -21 -6 -60 -21 -11 -4 -22 -8 -25 -9
-56 -14 -382 -140 -550 -212 -119 -52 -445 -211 -566 -277 -213 -116 -521
-312 -714 -454 -160 -118 -296 -226 -328 -261 -122 -133 -71 -160 128 -69 25
11 63 29 85 38 22 10 66 29 97 44 31 14 59 26 62 26 3 0 29 11 58 24 29 13 89
38 133 56 44 17 99 40 122 51 24 10 46 19 51 19 4 0 43 14 87 31 228 88 963
338 1040 354 11 2 20 4 20 5 0 1 7 3 15 5 8 1 62 16 120 33 140 41 312 83 317
79 2 -2 -11 -62 -28 -133 -17 -71 -32 -136 -34 -144 -2 -8 -20 -80 -40 -160
-20 -80 -38 -152 -40 -160 -12 -57 -169 -646 -249 -931 -169 -605 -316 -1089
-551 -1809 -206 -634 -388 -1231 -510 -1675 -25 -93 -50 -181 -55 -195 -5 -14
-21 -70 -35 -125 -14 -55 -32 -125 -41 -155 -8 -30 -17 -62 -19 -70 -1 -8 -32
-127 -68 -265 -105 -404 -243 -984 -311 -1300 -34 -157 -113 -559 -120 -610
-4 -22 -13 -76 -21 -120 -18 -99 -23 -129 -30 -180 -3 -22 -10 -62 -15 -90 -9
-47 -12 -68 -26 -170 -3 -22 -8 -51 -10 -65 -3 -14 -7 -43 -10 -65 -3 -22 -11
-87 -19 -145 -8 -58 -17 -127 -21 -155 -3 -27 -7 -61 -9 -75 -10 -62 -31 -287
-40 -430 -2 -36 -6 -103 -9 -150 -18 -279 -24 -817 -11 -1075 13 -287 23 -429
35 -525 5 -41 12 -93 15 -115 3 -22 7 -58 10 -80 5 -36 29 -189 39 -240 2 -11
7 -40 11 -65 4 -25 9 -54 11 -65 3 -11 9 -40 14 -65 5 -25 16 -74 24 -110 8
-36 17 -76 19 -90 3 -14 24 -99 47 -190 82 -320 200 -678 310 -935 169 -399
408 -798 684 -1144 141 -178 189 -221 248 -221 36 0 19 76 -40 178 -71 124
-83 145 -139 257 -224 444 -387 929 -467 1390 -9 50 -17 99 -20 110 -2 11 -7
42 -10 68 -4 27 -9 56 -11 65 -5 28 -25 164 -30 207 -3 22 -7 51 -10 65 -2 14
-7 50 -10 80 -3 30 -8 66 -10 80 -5 27 -12 85 -20 174 -3 31 -8 73 -10 95 -2
21 -7 72 -10 112 -3 41 -8 90 -10 109 -2 19 -7 82 -10 140 -4 58 -8 123 -10
145 -6 55 -5 780 0 885 2 47 7 141 10 210 3 69 8 154 10 190 3 36 7 101 10
145 4 44 8 96 10 115 2 19 7 71 10 115 3 44 7 96 10 115 2 19 7 60 10 90 4 30
8 66 10 80 2 14 7 45 10 70 3 25 8 56 10 70 2 14 7 45 10 70 3 25 12 83 20
130 8 47 17 105 20 130 3 25 10 68 15 95 5 28 12 66 14 85 5 35 8 53 26 145 5
28 12 67 16 88 5 35 81 424 89 457 10 46 15 68 19 90 8 44 36 173 51 230 8 30
17 69 20 87 9 54 191 775 250 993 80 292 185 658 245 850 162 519 154 493 288
940 55 184 130 439 167 565 37 127 116 400 177 609 60 208 111 386 113 395 2
9 15 59 30 111 14 52 28 102 30 110 2 8 20 76 40 150 112 417 293 1184 330
1400 3 19 19 109 35 200 33 187 56 330 65 409 4 30 8 62 10 71 2 9 6 41 10 71
3 30 8 65 10 79 2 14 7 54 10 90 4 36 8 76 10 90 2 14 6 52 9 85 4 33 9 87 12
120 4 33 8 74 9 90 2 17 3 35 4 41 0 6 25 15 54 18 61 8 112 16 147 21 74 13
142 17 138 9 -5 -8 -15 -81 -23 -173 -2 -20 -6 -58 -10 -86 -3 -27 -8 -67 -11
-87 -7 -60 -14 -120 -19 -158 -2 -19 -7 -59 -11 -89 -3 -30 -7 -62 -9 -72 -4
-21 -14 -90 -19 -139 -3 -19 -12 -84 -20 -145 -9 -60 -19 -125 -21 -142 -9
-64 -17 -109 -31 -198 -8 -49 -17 -106 -20 -125 -2 -19 -18 -118 -35 -220 -17
-102 -33 -198 -35 -215 -2 -16 -11 -66 -19 -110 -8 -44 -17 -98 -20 -120 -3
-22 -10 -60 -15 -85 -9 -41 -20 -106 -35 -200 -6 -40 -30 -170 -51 -280 -8
-41 -16 -89 -19 -105 -2 -17 -9 -55 -15 -85 -6 -30 -13 -68 -15 -84 -3 -15 -7
-37 -10 -47 -4 -11 -8 -32 -10 -47 -5 -35 -39 -208 -69 -349 -9 -40 -18 -87
-21 -105 -3 -17 -7 -34 -9 -37 -2 -3 -7 -22 -10 -41 -3 -19 -19 -93 -36 -165
-17 -71 -53 -229 -81 -350 -74 -330 -86 -376 -139 -550 -40 -130 -160 -544
-176 -605 -55 -214 -191 -821 -219 -975 -11 -63 -46 -266 -51 -299 -3 -21 -8
-48 -10 -60 -2 -11 -6 -32 -9 -46 -3 -14 -7 -36 -10 -50 -3 -14 -12 -59 -20
-100 -8 -41 -24 -120 -35 -175 -25 -114 -47 -228 -55 -289 -3 -22 -8 -54 -11
-69 -6 -31 -8 -40 -19 -132 -4 -33 -9 -62 -10 -65 -2 -3 -6 -41 -10 -85 -4
-44 -9 -82 -10 -85 -2 -3 -6 -57 -10 -119 -4 -63 -9 -124 -11 -135 -19 -102
-22 -272 -5 -304 20 -38 75 -23 124 33 22 26 117 184 117 196 0 5 4 9 9 9 5 0
11 8 15 17 3 10 20 41 37 68 50 79 313 728 599 1475 241 633 521 1435 701
2015 49 160 97 313 106 340 65 210 321 1136 338 1225 2 12 7 30 10 40 3 10 7
27 9 37 3 10 13 56 25 103 23 97 67 306 75 365 4 22 11 69 17 105 11 70 14 88
24 165 3 28 8 60 10 73 2 13 7 53 11 90 3 37 8 76 10 86 2 10 6 51 9 90 3 39
7 91 10 116 2 25 7 77 10 115 8 112 16 217 20 260 25 276 20 842 -10 1065 -2
19 -7 64 -10 100 -3 36 -8 82 -11 103 -3 20 -1 37 3 38 4 0 17 2 28 4 95 18
932 26 1205 12 150 -8 285 -17 343 -23 21 -2 77 -6 124 -10 47 -3 93 -7 102
-9 9 -1 54 -6 101 -10 47 -4 87 -9 90 -10 3 -2 35 -6 70 -10 71 -7 155 -19
281 -40 24 -4 158 -31 204 -40 587 -123 1121 -332 1595 -623 91 -56 336 -225
350 -241 3 -4 30 -26 60 -51 135 -110 420 -391 511 -505 126 -156 232 -337
298 -505 19 -47 37 -94 42 -105 8 -21 28 -83 47 -145 51 -167 62 -455 23 -640
-26 -122 -82 -295 -141 -436 -45 -108 -174 -359 -196 -385 -8 -8 -14 -19 -14
-23 0 -15 -163 -254 -252 -371 -185 -240 -534 -605 -842 -880 -43 -38 -86 -77
-95 -85 -9 -9 -47 -43 -86 -75 -38 -33 -72 -62 -75 -65 -3 -3 -43 -37 -90 -75
-564 -467 -1318 -993 -2365 -1652 -192 -121 -399 -252 -460 -291 -60 -39 -137
-88 -170 -108 -55 -35 -116 -74 -420 -272 -55 -36 -241 -159 -413 -274 -172
-114 -315 -208 -318 -208 -2 0 0 8 5 19 76 141 499 1490 697 2221 134 494 302
1235 350 1545 3 17 9 53 14 80 5 28 12 66 15 85 4 19 15 80 25 135 21 107 60
342 75 440 2 17 11 73 19 125 8 52 17 115 21 140 3 25 12 97 20 160 8 63 17
131 20 150 6 49 14 124 20 195 3 33 7 76 10 95 2 19 7 63 10 98 3 34 7 88 10
120 3 31 8 91 10 132 3 41 7 102 10 135 22 329 23 707 1 930 -14 142 -24 215
-47 345 -35 200 -105 447 -165 578 -13 29 -24 57 -24 63 0 15 -47 108 -63 123
-18 19 -54 29 -61 17 -8 -12 -13 -81 -21 -266 -3 -77 -8 -169 -10 -205 -8
-132 -16 -236 -20 -275 -9 -85 -15 -153 -20 -220 -3 -38 -8 -81 -10 -95 -2
-14 -6 -50 -10 -80 -9 -86 -15 -133 -20 -160 -3 -14 -7 -50 -10 -80 -3 -30
-12 -93 -20 -140 -8 -47 -17 -105 -20 -130 -4 -25 -20 -117 -36 -205 -17 -88
-33 -173 -35 -190 -3 -16 -21 -100 -40 -185 -19 -85 -37 -168 -40 -184 -3 -16
-7 -32 -9 -36 -2 -3 -6 -17 -9 -31 -2 -13 -14 -60 -25 -105 -12 -45 -23 -90
-26 -100 -2 -10 -25 -102 -50 -204 -26 -102 -48 -192 -50 -200 -7 -27 -102
-392 -135 -515 -17 -66 -35 -133 -41 -150 -11 -36 -78 -282 -84 -310 -2 -11
-20 -76 -40 -145 -20 -69 -38 -132 -40 -140 -2 -8 -44 -157 -95 -330 -51 -173
-93 -322 -95 -330 -7 -31 -238 -791 -291 -960 -63 -198 -320 -992 -334 -1030
-30 -80 -226 -778 -255 -905 -2 -11 -12 -49 -20 -85 -9 -36 -18 -72 -20 -81
-3 -15 -26 -113 -45 -194 -6 -22 -21 -94 -36 -160 -46 -218 -47 -217 326 -336
283 -90 471 -179 817 -387 94 -56 485 -314 593 -390 25 -18 70 -49 100 -70
141 -95 695 -520 876 -671 17 -14 51 -42 75 -61 44 -36 264 -218 309 -256 81
-69 139 -120 170 -147 20 -18 64 -57 99 -87 36 -30 69 -60 75 -65 6 -6 40 -35
76 -65 36 -30 67 -57 70 -60 5 -5 107 -91 145 -121 22 -18 105 -88 145 -123
14 -11 61 -50 105 -86 44 -36 96 -83 115 -105 91 -103 355 -359 450 -435 67
-54 232 -190 260 -213 53 -45 249 -203 270 -217 12 -8 28 -20 34 -25 6 -6 70
-55 141 -110 72 -54 177 -136 235 -182 115 -91 205 -155 380 -271 63 -42 138
-93 165 -113 147 -107 334 -162 369 -107 13 22 -10 72 -57 125 -19 21 -61 81
-93 133 -50 81 -371 519 -404 550 -3 3 -21 25 -40 50 -48 63 -343 434 -350
440 -3 3 -61 73 -130 155 -68 83 -190 226 -270 319 -80 93 -158 185 -175 205
-31 37 -140 162 -254 290 -36 41 -74 83 -83 94 -139 159 -701 727 -923 934
-66 61 -140 130 -165 153 -76 70 -212 184 -282 236 -229 167 -633 399 -898
514 -91 40 -170 76 -281 128 -46 22 -149 65 -229 97 -80 31 -154 60 -165 65
-76 33 -456 139 -555 154 -19 3 -44 7 -55 10 -83 16 -273 34 -385 36 -48 1
-30 10 485 260 77 37 250 122 385 187 135 66 313 153 395 193 259 125 1226
608 1310 653 322 173 488 266 735 412 63 37 129 75 145 85 195 111 1029 652
1147 744 14 12 70 53 123 91 84 61 224 167 335 253 46 36 312 254 326 267 9 9
85 75 158 138 665 578 1091 1121 1359 1737 94 215 176 500 193 670 3 36 9 95
13 131 16 155 -2 427 -39 594 -5 22 -11 54 -15 72 -3 18 -18 83 -35 145 -93
358 -251 680 -484 986 -41 53 -82 106 -92 117 -11 12 -48 54 -83 95 -77 89
-248 260 -347 348 -93 82 -311 252 -323 252 -5 0 -11 4 -13 8 -7 18 -296 201
-448 284 -141 77 -372 189 -500 243 -307 129 -786 267 -1075 309 -23 4 -50 8
-60 10 -81 16 -229 34 -330 42 -44 3 -91 7 -105 10 -14 2 -68 6 -120 10 -52 3
-120 7 -150 9 -140 10 -796 25 -803 19z"/>
<path d="M11582 9390 c-60 -21 -144 -51 -188 -68 -43 -17 -113 -43 -154 -57
-256 -90 -543 -211 -1040 -438 -30 -14 -102 -46 -159 -72 -128 -57 -171 -77
-290 -132 -51 -23 -95 -43 -97 -43 -2 0 -47 -20 -100 -45 -53 -25 -97 -45 -99
-45 -1 0 -45 -20 -96 -44 -52 -24 -116 -54 -144 -66 -27 -13 -79 -36 -115 -53
-36 -16 -94 -43 -130 -59 -36 -16 -83 -38 -105 -48 -199 -94 -269 -126 -500
-225 -99 -43 -209 -91 -245 -108 -36 -16 -76 -33 -89 -38 -50 -20 -326 -142
-333 -148 -4 -3 23 -7 60 -8 69 -1 168 -10 212 -17 14 -3 54 -10 90 -16 97
-17 223 -53 335 -95 146 -55 449 -205 620 -306 141 -84 388 -253 452 -309 15
-14 84 -70 153 -124 69 -55 127 -102 130 -106 3 -3 21 -18 40 -34 148 -121
254 -223 911 -883 651 -653 736 -738 926 -939 198 -210 200 -212 313 -335 303
-329 653 -679 1075 -1074 18 -16 68 -61 110 -100 43 -38 90 -81 104 -94 14
-13 48 -42 74 -65 27 -22 59 -50 71 -61 12 -11 44 -38 70 -60 27 -22 54 -45
60 -50 11 -10 125 -104 156 -128 8 -7 35 -28 60 -47 25 -19 50 -39 56 -45 7
-5 24 -19 40 -30 27 -20 72 -54 128 -98 16 -12 48 -35 71 -52 23 -16 80 -57
126 -90 46 -33 98 -69 116 -80 266 -165 376 -227 563 -317 80 -38 154 -73 165
-78 11 -4 36 -15 56 -24 225 -99 572 -211 623 -202 66 12 73 60 22 139 -40 62
-105 127 -246 244 -58 49 -112 95 -121 103 -9 8 -58 53 -109 100 -155 141
-386 375 -557 565 -113 126 -117 130 -275 320 -218 261 -272 325 -323 381 -11
12 -47 53 -80 90 -201 229 -662 690 -870 871 -82 71 -103 88 -159 136 -27 23
-54 47 -60 52 -6 6 -45 39 -86 75 -41 35 -82 71 -91 80 -9 8 -45 40 -79 70
-90 79 -90 79 -165 145 -71 62 -179 161 -225 205 -24 24 -210 195 -314 290
-27 25 -57 52 -66 60 -95 87 -236 212 -305 271 -22 19 -44 39 -50 45 -5 6 -41
37 -80 70 -38 32 -72 61 -75 64 -3 3 -32 28 -65 55 -33 28 -62 52 -65 55 -3 3
-27 24 -55 45 -27 22 -52 42 -55 46 -3 3 -39 32 -80 64 -41 33 -77 62 -80 66
-6 6 -368 277 -397 296 -10 7 -61 43 -113 80 -303 213 -544 368 -775 498 -83
48 -333 169 -444 215 -57 24 -97 46 -90 48 8 3 115 55 239 117 333 166 438
223 850 465 157 92 301 177 320 188 19 10 75 43 125 72 49 28 115 64 146 80
96 48 258 161 429 299 58 47 112 91 120 97 135 105 295 262 351 344 34 51 35
84 2 86 -11 1 -70 -16 -131 -36z"/>
<path d="M5231 7139 c-30 -12 -26 -31 17 -77 38 -43 59 -54 462 -250 113 -55
213 -107 223 -114 18 -13 18 -17 3 -79 -34 -141 -90 -422 -112 -565 -3 -21
-12 -79 -19 -129 -8 -49 -17 -110 -20 -135 -3 -25 -7 -61 -10 -80 -15 -113
-19 -155 -29 -300 -4 -52 -9 -111 -11 -130 -2 -19 -6 -82 -10 -140 -3 -58 -8
-121 -10 -140 -2 -19 -6 -82 -10 -140 -3 -58 -8 -125 -10 -150 -2 -25 -7 -90
-10 -145 -10 -153 -13 -193 -20 -280 -13 -153 -14 -181 -21 -400 -7 -246 -1
-294 41 -313 21 -10 30 -9 50 4 51 33 141 255 265 649 15 50 57 182 93 295
152 478 322 1025 419 1345 33 110 72 237 87 283 l26 84 90 -69 c50 -37 92 -70
95 -73 3 -3 23 -18 45 -35 22 -16 42 -32 45 -35 3 -3 53 -45 112 -93 58 -48
112 -93 120 -100 7 -7 49 -44 93 -82 44 -38 85 -74 91 -80 6 -5 65 -59 130
-120 238 -223 714 -708 1088 -1109 249 -268 261 -281 487 -517 103 -107 202
-210 220 -230 221 -237 672 -697 779 -795 131 -120 297 -265 386 -339 27 -22
64 -54 84 -70 19 -17 80 -67 135 -110 55 -44 105 -84 111 -90 7 -5 24 -19 40
-30 15 -11 32 -24 38 -30 39 -36 280 -209 436 -312 102 -68 190 -127 195 -131
26 -19 333 -197 440 -254 116 -62 519 -263 619 -308 261 -117 803 -303 976
-334 14 -2 79 -18 145 -34 125 -31 358 -81 410 -88 17 -2 41 -6 55 -9 14 -3
41 -7 60 -9 19 -3 89 -11 155 -20 66 -8 152 -17 190 -20 39 -3 111 -8 160 -12
119 -9 514 -9 640 0 55 4 125 9 155 11 30 2 75 7 100 10 25 3 65 8 90 11 59 7
154 22 260 40 19 3 46 8 60 10 14 2 36 7 50 10 14 3 35 8 47 10 218 41 773
208 851 256 18 11 40 31 49 44 33 51 -20 65 -167 44 -387 -54 -931 -57 -1350
-6 -25 3 -67 8 -95 12 -27 3 -66 7 -85 9 -265 32 -254 30 -460 65 -69 12 -145
26 -170 31 -25 6 -59 12 -77 15 -25 3 -142 29 -353 79 -155 37 -449 125 -675
202 -88 30 -178 60 -200 67 -82 27 -335 125 -486 189 -272 115 -604 299 -924
513 -213 143 -197 131 -340 239 -208 158 -298 228 -315 245 -3 3 -27 23 -55
45 -113 90 -347 294 -510 445 -117 109 -524 518 -625 630 -96 105 -165 179
-340 365 -146 155 -870 877 -1010 1007 -169 158 -279 257 -354 321 -12 10 -34
30 -51 45 -16 15 -55 47 -85 72 -30 25 -57 47 -60 50 -5 5 -103 86 -130 107
-8 6 -30 24 -49 40 -19 15 -89 69 -155 120 -67 51 -125 96 -131 100 -62 51
-440 310 -610 419 -411 263 -809 424 -1275 518 -69 14 -145 28 -170 30 -25 3
-58 8 -75 10 -149 19 -312 26 -344 15z"/>
<path d="M4937 5484 c-55 -55 -105 -261 -132 -539 -3 -33 -8 -78 -10 -100 -4
-36 -11 -135 -20 -255 -26 -357 -26 -1040 -1 -1245 7 -59 20 -150 21 -155 1
-3 5 -25 9 -50 13 -80 67 -344 76 -375 5 -16 12 -41 14 -55 3 -14 10 -43 16
-65 6 -22 13 -48 15 -59 2 -10 23 -73 46 -140 74 -217 132 -311 283 -461 130
-130 305 -257 368 -269 21 -4 63 -20 95 -37 61 -32 116 -36 121 -9 1 9 -13 36
-31 60 -153 200 -334 712 -447 1265 -29 140 -71 359 -75 390 -2 19 -6 50 -9
67 -7 40 -13 88 -20 148 -3 25 -8 65 -11 90 -2 25 -7 81 -10 125 -5 82 -13
186 -20 265 -2 25 -7 78 -10 118 -4 41 -8 81 -10 90 -1 9 -6 57 -10 106 -4 50
-8 97 -10 105 -2 9 -6 45 -9 81 -7 62 -10 86 -21 175 -3 22 -7 74 -10 115 -12
199 -39 359 -80 481 -14 41 -28 87 -31 104 -11 60 -45 72 -87 29z"/>
<path d="M14018 1886 c-35 -17 -34 -55 3 -99 34 -41 150 -104 279 -152 41 -15
118 -44 170 -65 353 -141 725 -228 1095 -255 39 -3 99 -8 135 -11 221 -21 557
-8 726 30 12 2 38 7 58 10 83 13 274 60 401 98 55 16 109 32 120 35 28 8 76
45 146 112 43 41 59 65 59 84 0 14 -5 29 -11 32 -17 11 -126 14 -159 5 -17 -5
-53 -12 -82 -15 -28 -4 -60 -9 -72 -11 -11 -2 -50 -6 -86 -9 -36 -3 -76 -8
-90 -10 -54 -9 -431 -28 -550 -28 -86 0 -306 7 -595 18 -313 12 -581 46 -905
115 -80 17 -190 39 -245 50 -55 10 -145 30 -200 44 -129 32 -168 36 -197 22z"/>
</g>
</svg>
